PathFileType	4	(X/Y/Z)	Patient4_TMGait_0pt3_03_left_20.trc.trc
DataRate	CameraRate	NumFrames	NumMarkers	Units	OrigDataRate	OrigDataStartFrame	OrigNumFrames
58.333333333333	58.333333333333	4	33	mm	58.333333333333	106	       141
Frame#	Time	Sacral			L.Shoulder			Chest			R.Shoulder			Neck			R.ASIS			L.ASIS			R.Thigh.Superior			R.Thigh.Lateral			R.Thigh.Inferior			R.Patella			L.Thigh.Superior			L.Thigh.Lateral			L.Thigh.Inferior			L.Patella			L.Shank.Superior			L.Shank.Lateral			L.Shank.Inferior			R.Shank.Superior			R.Shank.Lateral			R.Shank.Inferior			R.Heel			R.Midfoot.Superior			R.Midfoot.Lateral			R.Toe			L.Heel			L.Midfoot.Lateral			L.Midfoot.Superior			L.Toe			L.Elbow			L.Wrist			R.Elbow			R.Wrist			
		X1	Y1	Z1	X2	Y2	Z2	X3	Y3	Z3	X4	Y4	Z4	X5	Y5	Z5	X6	Y6	Z6	X7	Y7	Z7	X8	Y8	Z8	X9	Y9	Z9	X10	Y10	Z10	X11	Y11	Z11	X12	Y12	Z12	X13	Y13	Z13	X14	Y14	Z14	X15	Y15	Z15	X16	Y16	Z16	X17	Y17	Z17	X18	Y18	Z18	X19	Y19	Z19	X20	Y20	Z20	X21	Y21	Z21	X22	Y22	Z22	X23	Y23	Z23	X24	Y24	Z24	X25	Y25	Z25	X26	Y26	Z26	X27	Y27	Z27	X28	Y28	Z28	X29	Y29	Z29	X30	Y30	Z30	X31	Y31	Z31	X32	Y32	Z32	X33	Y33	Z33	

106	36.590000000000	717.640492401832	988.077303452785	535.208948996996	874.856157388317	1427.294470526251	358.001658336618	980.664187479062	1364.309555086977	518.853789696753	893.315865136948	1429.111971420563	694.208326933668	844.938238858117	1485.486194851103	517.096302630955	951.567313762921	933.937757992422	650.924622714287	933.605436573259	958.435459839533	378.168868145199	1002.986110635322	736.047603141311	613.084521656810	929.073631676240	618.758178909140	668.197900874144	1009.083814804062	573.178145155152	586.894352264170	1013.051344323257	478.414980155484	591.058733638494	1014.776442583691	763.068102846442	401.295604969974	963.677218789291	637.777698345040	322.442876301410	1064.654284202728	570.905001123772	384.715957894806	1071.497353934522	480.946717125161	373.989222166477	1001.778350372208	418.770934338231	363.136433905313	857.948913485105	383.492921722359	315.121268929924	843.300582892566	251.623637484528	361.937884020924	970.196554273868	390.643184275897	593.681965007773	886.018783288730	295.322623349281	653.754273946574	911.352309301697	198.654265983573	586.805313951988	755.675318571433	44.445618581547	556.836694316079	928.159009018957	96.176260113726	592.860597208431	838.968756567495	37.535753931829	630.819787207103	1047.332497477031	41.122118766580	620.953655074803	651.405412911324	183.702456927120	400.542250084974	707.612734315098	148.085167941601	314.450835524938	813.622822225953	156.676488670667	334.027143540621	892.979052208932	49.569018531612	291.400024348073	870.663047502042	1071.235289549681	246.471633611649	983.214262636207	835.391682008784	244.561257960297	943.213997911372	1085.308760745142	824.401381546852	1133.591549197494	907.855767538679	844.124716691052	
107	36.607142857143	716.088437055188	986.911964429362	537.484850308795	872.132123403966	1425.656572928462	358.594346211959	979.588281560575	1363.075923624463	518.499381077312	894.190846321139	1428.341259550361	694.685230601551	843.842072898948	1484.329665186864	517.546256595663	950.854426040424	932.377032659908	651.213386604183	930.525887773205	957.697378160030	378.636817583310	1002.405402622165	734.826363171214	612.390200949079	929.229289327848	617.189051881641	667.627891409007	1008.667260317398	571.932733082431	585.589410448964	1012.647163704443	476.846809057395	589.382246796690	1014.458613887178	765.038883997920	402.098754189486	965.936228487666	639.154561286738	323.198779739994	1067.656804028576	573.955873075418	385.981060027039	1076.562955528047	484.430533888680	375.108361263028	1008.810268583425	420.826408566347	363.481026484438	866.328267218541	381.158266862216	315.141495269926	856.306193677423	248.517029216165	361.064979268036	968.852629453857	389.153824281120	592.435022523066	883.968916939545	294.647909002614	652.921305195511	907.786796226940	197.752561519960	586.022481294525	750.548519098926	44.409767114051	556.827009107378	923.031602310212	96.063642238887	592.567135274007	833.825000195671	37.541953182752	630.829303413676	1042.198640879085	41.016882404093	620.975125289949	667.116953125324	173.304534482764	399.360173155281	724.439650262172	140.895634172359	312.738274293073	829.968094476713	153.127900080215	332.361492475879	913.147671038816	49.796449401671	288.333959088573	859.180442144390	1068.977331290748	249.507156506070	955.613095970381	826.262542433705	246.383882192918	955.491683415068	1086.870311948861	825.385358639760	1156.079691324738	920.787987193816	841.483462044013	
108	36.624285714286	714.564295182925	986.107099988270	539.591225740563	869.347843332989	1424.284168250620	358.977694368504	978.548117940045	1362.128510685882	517.851405692802	895.179266226532	1427.884402369444	694.870111641749	842.794289640915	1483.423504003824	517.720892741612	950.192262714569	930.965477252879	651.193869017282	927.460665680666	957.212924453273	378.824106238135	1001.437835865894	733.616962937468	611.362432045515	928.901386242008	615.801034661679	666.921184436212	1007.548085554863	570.725253490675	584.043237258851	1011.409689914714	475.450812784573	587.498993070835	1013.668666544664	766.878390383208	402.833875791225	967.425399581524	640.513041050162	323.920039597241	1069.513500330113	576.749749390570	387.344234617750	1080.427943065671	487.880686135189	376.383748081262	1015.041822816939	422.839817139751	363.873973985819	874.553162162992	377.877306118485	314.772661951913	869.885333311109	244.621495476658	359.952099748302	966.863321568009	387.814011994043	591.078521438143	881.488513938127	293.998206905633	652.065699357285	903.962502684267	196.919988694709	585.212468212224	745.397446640305	44.315783596793	556.824093679133	917.855909769517	95.941243570410	592.231291212029	828.663320914262	37.530001220222	630.857347116136	1037.043410512429	40.967489587494	620.967168447224	684.108801471811	161.215116424834	397.377777555889	742.861861261723	132.110332118171	310.570417912157	847.613316153879	148.600499449038	330.563842748941	935.137982608077	49.613284715544	285.800201698700	847.391984463877	1067.352593464761	252.161183306412	928.084381755066	819.163092272483	248.265990506502	967.607391707705	1089.225902998899	826.078823541883	1177.989103052558	935.531008658198	838.065588055693	
109	36.641428571429	713.091628546764	985.750214600518	541.531448047259	866.512867522673	1423.285695027447	359.159718325847	977.557183025795	1361.539632349120	516.897422135369	896.313140966440	1427.791926532009	694.761781644075	841.818441971797	1482.842454537200	517.658150594544	949.604722808637	929.803453501836	650.847471333273	924.435705569469	957.042001372540	378.712812104644	1000.039680155876	732.479113510107	610.046364421762	927.999336618771	614.682800169403	666.144057467786	1005.627928486974	569.608714641768	582.351121497829	1009.217525096011	474.287132599980	585.537716084512	1012.414319144863	768.600129299046	403.493818089710	968.124328596380	641.861376722071	324.559206018555	1070.236276266751	579.271068320703	388.728138771714	1083.085991353274	491.280930299040	377.721737114228	1020.423942463878	424.844911128659	364.272513985359	882.602539346878	373.841618865984	314.076454665099	883.936498830301	240.222540893047	358.689495667994	964.121690822840	386.690515982968	589.709868055158	878.480583768650	293.411393291101	651.252780034955	899.830264950045	196.201197470529	584.433547846726	740.215838664690	44.174383557998	556.836203016699	912.633155420431	95.816998586865	591.876159911369	823.482160447636	37.501960583171	630.906660327954	1031.863811841774	40.976709131759	620.931334530287	702.353416495154	147.935016064293	394.848828067919	762.742433895738	122.218265518040	308.144753067916	866.381334683669	143.470064768797	328.751579291430	958.605794499423	49.322425529976	283.839946369853	835.413467172149	1066.490889530577	254.437654125561	901.026542785888	814.117399451049	250.232198269729	979.505244661075	1092.386321056975	826.479672314621	1199.098937374248	952.068226992248	833.942755451323	
